<svg width="42" height="42" viewBox="0 0 42 42" fill="none" xmlns="http://www.w3.org/2000/svg">
<g clip-path="url(#clip0_64_18397)">
<path d="M10 27.416V32H14.3756L27.2866 18.4742L22.911 13.8903L10 27.416ZM30.6587 14.9415C31.1138 14.4648 31.1138 13.6886 30.6587 13.2118L27.9342 10.3575C27.4791 9.88082 26.7382 9.88082 26.2831 10.3575L24.1478 12.5945L28.5234 17.1785L30.6587 14.9415Z" fill="#D7DFAF"/>
<path d="M25 2H15C7.8203 2 2 7.8203 2 15V27C2 34.1797 7.8203 40 15 40H25C32.1797 40 38 34.1797 38 27V15C38 7.8203 32.1797 2 25 2Z" stroke="#D7DFAF" stroke-width="0.5"/>
</g>
<defs>
<clipPath id="clip0_64_18397">
<rect width="42" height="42" fill="white"/>
</clipPath>
</defs>
</svg>
