<svg width="54" height="54" viewBox="0 0 54 54" fill="none" xmlns="http://www.w3.org/2000/svg">
<path d="M12.8574 35.2492V41.1428H18.4832L35.083 23.7526L29.4572 17.8589L12.8574 35.2492ZM39.4186 19.2105C40.0037 18.5976 40.0037 17.5996 39.4186 16.9866L35.9156 13.3168C35.3305 12.7039 34.3779 12.7039 33.7928 13.3168L31.0474 16.1929L36.6732 22.0866L39.4186 19.2105Z" fill="#655247"/>
<path d="M35.857 2.57141H15.5713C8.39159 2.57141 2.57129 8.3917 2.57129 15.5714V38.4286C2.57129 45.6083 8.39157 51.4286 15.5713 51.4286H35.857C43.0367 51.4286 48.857 45.6083 48.857 38.4286V15.5714C48.857 8.39171 43.0367 2.57141 35.857 2.57141Z" stroke="#655247" stroke-width="0.5"/>
</svg>
