<svg width="48" height="50" viewBox="0 0 48 50" fill="none" xmlns="http://www.w3.org/2000/svg">
<g clip-path="url(#clip0_690_408)">
<path d="M13.8934 35.2322C13.8934 36.9489 15.2839 38.3393 17.0006 38.3393H29.4291C31.1458 38.3393 32.5363 36.9489 32.5363 35.2322V16.5893H13.8934V35.2322ZM34.0898 11.9286H28.6523L27.0988 10.3751H19.3309L17.7773 11.9286H12.3398V15.0358H34.0898V11.9286Z" fill="#655247"/>
</g>
<path d="M34.0006 0.571472H13.7148C6.53514 0.571472 0.714844 6.39176 0.714844 13.5715V36.4286C0.714844 43.6083 6.53513 49.4286 13.7148 49.4286H34.0006C41.1803 49.4286 47.0006 43.6083 47.0006 36.4286V13.5715C47.0006 6.39177 41.1803 0.571472 34.0006 0.571472Z" stroke="#655247" stroke-width="0.5"/>
<defs>
<clipPath id="clip0_690_408">
<rect width="37.2857" height="37.2857" fill="white" transform="translate(4.57227 5.71436)"/>
</clipPath>
</defs>
</svg>
